<svg id="Layer_1" data-name="Layer 1"
    xmlns="http://www.w3.org/2000/svg" viewBox="0 0 174.8877 208.21227">
    <defs>
        <style>.cls-1{fill:none;}</style>
    </defs>
    <path class="cls-1" d="M104.1582,62.20947a.13428.13428,0,0,0-.26855,0C103.88965,62.35791,104.1582,62.35791,104.1582,62.20947Z" transform="translate(-16.58008 -17.16712)"/>
    <path class="cls-1" d="M163.49365,39.292a15.178,15.178,0,0,0-10.58154-6.88525,16.86722,16.86722,0,0,0-2.81738-.23731,18.6492,18.6492,0,0,0-12.23291,4.83594c-6.70606,5.68311-12.21827,16.73-15.65479,25.33692l31.36621-.0044C162.83984,56.08057,167.36572,45.86133,163.49365,39.292Z" transform="translate(-16.58008 -17.16712)"/>
    <path class="cls-1" d="M54.4751,62.33789l31.36572.0044C82.40479,53.73682,76.89258,42.689,70.186,37.00537c-5.80909-4.92285-11.39161-5.2207-15.04981-4.59863A15.178,15.178,0,0,0,44.55469,39.292C40.68262,45.86133,45.2085,56.08057,54.4751,62.33789Z" transform="translate(-16.58008 -17.16712)"/>
    <path d="M111.52393,77.34375h.13525c-.04547,0-.08991-.00708-.13525-.00787Z" transform="translate(-16.58008 -17.16712)"/>
    <path d="M96.52393,77.34375v-.00781c-.045.00079-.08912.00781-.13428.00781Z" transform="translate(-16.58008 -17.16712)"/>
    <path d="M183.96777,62.34375h-9.744c6.34-9.87769,7.60192-21.48993,2.19268-30.668A30.33,30.33,0,0,0,155.41406,17.6167c-9.60791-1.62451-19.28564,1.1958-27.24951,7.94531-7.08288,6.00208-12.6189,15.251-16.5581,23.57019a15.00385,15.00385,0,0,0-15.165,0C92.5022,40.813,86.96619,31.56409,79.8833,25.562c-7.96387-6.74951-17.63916-9.57275-27.24951-7.94531A30.329,30.329,0,0,0,31.63184,31.67578c-5.40924,9.178-4.14734,20.79028,2.19268,30.668H24.08008a7.50006,7.50006,0,0,0-7.5,7.5v45.18457a7.50006,7.50006,0,0,0,7.5,7.5h5.73486v95.35107a7.50006,7.50006,0,0,0,7.5,7.5H170.7334a7.50006,7.50006,0,0,0,7.5-7.5V122.52832h5.73437a7.50006,7.50006,0,0,0,7.5-7.5V69.84375A7.50006,7.50006,0,0,0,183.96777,62.34375Zm-46.106-25.33838a18.6492,18.6492,0,0,1,12.23291-4.83594,16.86722,16.86722,0,0,1,2.81738.23731A15.178,15.178,0,0,1,163.49365,39.292c3.87207,6.56934-.65381,16.78858-9.92041,23.0459l-31.36621.0044C125.64355,53.73535,131.15576,42.68848,137.86182,37.00537ZM111.65918,77.34375h64.80859v30.18457H111.52393V77.33588C111.56927,77.33667,111.61371,77.34375,111.65918,77.34375ZM104.02393,62.0752a.13419.13419,0,0,1,.13427.13427c0,.14844-.26855.14844-.26855,0A.1342.1342,0,0,1,104.02393,62.0752ZM44.55469,39.292a15.178,15.178,0,0,1,10.58154-6.88525c3.6582-.62207,9.24072-.32422,15.04981,4.59863C76.89258,42.689,82.40479,53.73682,85.84082,62.34229l-31.36572-.0044C45.2085,56.08057,40.68262,45.86133,44.55469,39.292ZM31.58008,77.34375H96.38965c.04516,0,.08923-.007.13428-.00781v30.19238H31.58008Zm13.23486,45.18457h51.709v87.85107h-51.709ZM163.2334,210.37939H111.52393V122.52832H163.2334Z" transform="translate(-16.58008 -17.16712)"/>
</svg>