<svg id="Layer_1" data-name="Layer 1" xmlns="http://www.w3.org/2000/svg" viewBox="0 0 139.71362 139.71338"><defs><style>.cls-1{fill:#231f20;}</style></defs><path class="cls-1" d="M170.95181,179.48564l-33.853-33.853a56.61956,56.61956,0,1,0-14.14258,14.14257l33.853,33.853a10.00031,10.00031,0,0,0,14.14258-14.14258ZM47.16714,113.38017A43.53663,43.53663,0,1,1,90.70377,156.9168,43.58572,43.58572,0,0,1,47.16714,113.38017Z" transform="translate(-34.16714 -56.84355)"/><path class="cls-1" d="M127.99918,115.88017h-5v-2.5A32.33217,32.33217,0,0,0,90.70377,81.08476h-2.5v-5h2.5a37.33742,37.33742,0,0,1,37.29541,37.29541Z" transform="translate(-34.16714 -56.84355)"/></svg>